<svg xmlns="http://www.w3.org/2000/svg" width="120" height="86"><rect width="100%" height="100%" fill="#ccc"/><path fill="none" stroke="#dedede" stroke-width="6" d="M-50.129 12.685C-33.346 12.358-16.786 4.918 0 5c16.787.082 43.213 10 60 10s43.213-9.918 60-10 33.346 7.358 50.129 7.685"/><path fill="none" stroke="#bababa" stroke-width="6" d="M-50.129 32.685C-33.346 32.358-16.786 24.918 0 25c16.787.082 43.213 10 60 10s43.213-9.918 60-10 33.346 7.358 50.129 7.685"/><path fill="none" stroke="#ededed" stroke-width="6" d="M-50.129 52.685C-33.346 52.358-16.786 44.918 0 45c16.787.082 43.213 10 60 10s43.213-9.918 60-10 33.346 7.358 50.129 7.685"/><path fill="none" stroke="#ababab" stroke-width="6" d="M-50.129 72.685C-33.346 72.358-16.786 64.918 0 65c16.787.082 43.213 10 60 10s43.213-9.918 60-10 33.346 7.358 50.129 7.685"/></svg>